<svg version="1.1" id="Layer_1" xmlns="http://www.w3.org/2000/svg" xmlns:xlink="http://www.w3.org/1999/xlink" x="0px" y="0px"
	 width="100%" viewBox="0 0 241 104" enable-background="new 0 0 241 104" xml:space="preserve">
<path fill="#010202" opacity="1.000000" stroke="none" 
	d="
M41.000000,105.000000 
	C27.675262,105.000000 14.350523,105.000000 1.019339,105.000000 
	C1.012892,70.364281 1.012892,35.728554 1.012892,1.046413 
	C81.250580,1.046413 161.501205,1.046413 241.875916,1.046413 
	C241.875916,35.561195 241.875916,70.122986 241.875916,105.000000 
	C178.979462,105.000000 115.958389,105.000000 52.150635,104.717285 
	C52.260151,103.780716 53.070797,102.925026 54.065437,102.503433 
	C67.921036,96.630600 81.637451,90.375465 95.729568,85.132027 
	C106.579803,81.094818 117.910080,78.347733 129.455536,75.014221 
	C137.941116,73.637375 145.998047,72.273285 154.237305,70.878326 
	C152.210327,56.583389 157.221527,44.263771 160.955612,31.698492 
	C161.523483,29.787592 161.665146,27.750034 162.003952,25.771057 
	C161.568802,25.594551 161.133652,25.418043 160.698502,25.241535 
	C160.134186,25.996027 159.108276,26.732704 159.078369,27.507822 
	C158.832916,33.866947 154.797104,37.827213 150.254990,41.295692 
	C148.828003,42.385365 146.583435,42.404373 144.713089,42.913429 
	C144.651840,40.452503 143.538986,37.123573 144.722321,35.689957 
	C148.602417,30.989193 153.039719,26.619297 157.856186,22.888180 
	C159.619797,21.521992 163.496796,21.367756 165.571487,22.379519 
	C167.363174,23.253277 168.909256,26.575464 168.882965,28.795359 
	C168.839005,32.507385 167.455292,36.203541 166.635513,39.906376 
	C167.068115,40.186459 167.500717,40.466537 167.933334,40.746620 
	C172.854416,33.202507 177.775513,25.658398 182.639343,18.202082 
	C186.851013,19.812632 186.501480,22.428553 184.437424,25.658478 
	C182.359589,28.909954 180.537491,32.324848 178.518768,35.814327 
	C181.374115,35.510258 183.823807,35.465275 186.166702,34.942055 
	C188.755310,34.363960 192.759399,34.004852 193.462982,32.384769 
	C194.907349,29.058851 194.795609,24.812664 191.429504,21.970633 
	C188.077240,19.140291 184.501129,16.569340 187.453232,11.252781 
	C164.927567,10.261480 143.305237,10.848455 122.265404,18.501173 
	C127.493309,20.566214 129.327072,24.549572 126.894104,29.209198 
	C123.800072,35.134926 120.347633,41.102253 115.913246,46.028683 
	C112.215538,50.136692 112.143158,53.131618 115.604652,57.261749 
	C116.440208,56.235828 118.098618,54.957275 117.881180,54.346188 
	C116.205246,49.636223 120.491585,49.002010 122.720543,47.213177 
	C123.694580,46.431480 126.220413,46.170872 126.943619,46.847370 
	C127.843834,47.689442 128.265411,50.034424 127.741570,51.222336 
	C126.152443,54.826015 123.850266,58.109608 122.151062,61.672962 
	C121.388222,63.272728 120.518967,65.807144 121.238853,66.926353 
	C122.806709,69.363930 125.295692,70.611908 128.311050,68.146385 
	C129.804169,66.925514 131.855881,66.387779 133.654861,65.540977 
	C134.081467,66.059647 134.508072,66.578323 134.934677,67.097000 
	C132.776596,69.531677 130.618530,71.966362 128.075668,74.428886 
	C122.238838,76.123627 119.576775,72.086555 116.507576,68.842186 
	C115.016777,70.067398 113.693420,71.344009 112.192085,72.356812 
	C104.884819,77.286285 99.547218,75.418739 97.115021,67.075439 
	C94.702507,58.799633 97.583107,52.176407 103.525124,46.413769 
	C104.799248,45.178108 106.460182,43.125687 106.221817,41.747105 
	C104.866631,33.909313 106.106224,27.201046 113.192390,22.239672 
	C109.629616,22.985950 106.463089,24.027449 103.272667,24.989695 
	C100.038277,25.965200 96.790550,26.900187 93.530792,27.787241 
	C80.607101,31.304073 80.602158,31.294436 79.987656,44.593128 
	C79.965652,45.069305 80.084267,45.551983 80.107391,45.760998 
	C82.264114,46.797218 84.239082,47.746109 87.822449,49.467773 
	C77.182289,52.822620 77.984436,59.967266 79.104202,67.227982 
	C79.230453,68.046631 79.616814,68.884842 79.515610,69.666466 
	C79.305313,71.290657 78.848755,72.882965 78.418877,74.825180 
	C70.432922,70.222824 73.985085,62.906406 72.089470,56.529446 
	C70.187988,57.852219 68.230499,59.360374 67.787003,61.228043 
	C66.999062,64.546242 67.212006,68.091339 66.841797,71.523788 
	C66.637024,73.422340 66.098579,75.284904 65.540413,77.987480 
	C60.739265,74.400337 59.557346,70.531792 59.905663,66.243301 
	C60.178909,62.879070 60.441357,60.056686 56.958046,57.821095 
	C55.320660,56.770214 54.707024,54.124207 53.983101,52.832188 
	C57.285282,51.492428 61.243011,51.129673 62.403183,49.137619 
	C64.361015,45.775963 64.546295,41.381969 65.736206,36.319191 
	C63.232250,37.514942 61.720863,38.262775 60.188057,38.963772 
	C55.662258,41.033546 51.033314,42.903259 46.627205,45.201153 
	C43.150146,47.014526 39.943195,49.345837 35.555038,52.117401 
	C38.125450,52.929413 38.874912,53.166172 40.107403,53.555527 
	C36.795338,54.988148 33.975636,56.518154 30.969215,57.437672 
	C26.089699,58.930073 29.264414,62.367832 28.355097,65.316910 
	C32.486111,63.035046 36.075191,61.052536 39.863564,58.959942 
	C40.351490,60.057362 41.036453,61.342495 40.935406,61.407593 
	C37.319904,63.736885 33.630939,65.952148 30.559561,67.814957 
	C31.140938,70.667839 31.576473,72.805046 32.003559,74.900818 
	C33.467113,74.034653 35.030457,73.109436 36.616062,72.171043 
	C37.439213,73.884850 38.115509,75.292908 38.825150,76.770401 
	C37.838146,77.466629 36.937233,78.102127 35.901283,78.832886 
	C37.382637,82.958130 41.053375,86.433296 39.205776,91.644310 
	C38.725689,92.998360 40.747086,95.239326 41.619518,97.072922 
	C42.011402,96.894432 42.403286,96.715950 42.795170,96.537468 
	C42.196777,99.358315 41.598389,102.179153 41.000000,105.000000 
M214.997238,66.486015 
	C214.647476,62.245159 211.133438,63.538002 208.766281,63.044281 
	C204.808136,62.218727 200.794449,61.659538 197.034546,61.026997 
	C197.505096,57.747849 197.815704,55.583195 198.186157,53.001644 
	C196.638947,53.001644 195.662720,53.001644 194.686493,53.001644 
	C193.569702,53.001644 192.452911,53.001644 191.123764,53.001644 
	C191.123764,50.620193 190.823120,48.608936 191.182251,46.723339 
	C192.119293,41.803543 190.575699,39.660473 185.707016,38.938477 
	C183.149597,38.559227 180.691162,37.512642 177.775711,36.644650 
	C174.585846,40.544884 170.906815,45.043213 166.815720,50.045353 
	C172.450729,50.799332 174.827484,54.139420 176.285614,58.521770 
	C178.851974,66.234848 184.170746,69.599968 192.371521,69.098465 
	C196.415695,68.851158 200.585434,70.235100 204.585190,69.811752 
	C208.052719,69.444733 212.650574,72.689209 214.997238,66.486015 
M166.819321,55.564651 
	C163.464172,53.658825 161.901428,56.584789 161.363617,58.511955 
	C160.377533,62.045330 160.451630,65.874573 160.040070,70.019829 
	C162.897202,70.019829 164.863815,69.968880 166.826859,70.030792 
	C170.516068,70.147156 172.473206,69.158180 170.565933,65.009361 
	C169.262344,62.173702 168.266449,59.196587 166.819321,55.564651 
M107.069298,66.966583 
	C112.531372,61.341362 112.581284,60.796432 107.678192,52.197815 
	C105.924782,57.049534 104.172516,61.043587 103.090233,65.211609 
	C102.435799,67.731911 103.810516,69.026375 107.069298,66.966583 
M111.644905,36.885216 
	C111.782028,37.869957 111.919144,38.854702 112.245773,41.200470 
	C116.721420,36.207859 120.306389,32.208801 123.891357,28.209743 
	C123.413597,27.748756 122.935837,27.287769 122.458076,26.826782 
	C117.998489,28.816620 114.187897,31.599455 111.644905,36.885216 
M73.208359,47.941467 
	C74.476044,43.058235 75.743736,38.175007 77.032425,33.210892 
	C75.771194,33.053940 75.168564,32.946198 75.159760,32.982487 
	C73.938164,38.018894 72.759834,43.065800 71.579506,48.112217 
	C71.906624,48.092476 72.233734,48.072731 73.208359,47.941467 
z"/>
<path fill="#C0DBF1" opacity="1.000000" stroke="none" 
	d="
M41.458069,105.000000 
	C41.598389,102.179153 42.196777,99.358315 42.795170,96.537468 
	C42.403286,96.715950 42.011402,96.894432 41.619518,97.072922 
	C40.747086,95.239326 38.725689,92.998360 39.205776,91.644310 
	C41.053375,86.433296 37.382637,82.958130 35.901283,78.832886 
	C36.937233,78.102127 37.838146,77.466629 38.825150,76.770401 
	C38.115509,75.292908 37.439213,73.884850 36.616062,72.171043 
	C35.030457,73.109436 33.467113,74.034653 32.003559,74.900818 
	C31.576473,72.805046 31.140938,70.667839 30.559561,67.814957 
	C33.630939,65.952148 37.319904,63.736885 40.935406,61.407593 
	C41.036453,61.342495 40.351490,60.057362 39.863564,58.959942 
	C36.075191,61.052536 32.486111,63.035046 28.355097,65.316910 
	C29.264414,62.367832 26.089699,58.930073 30.969215,57.437672 
	C33.975636,56.518154 36.795338,54.988148 40.107403,53.555527 
	C38.874912,53.166172 38.125450,52.929413 35.555038,52.117401 
	C39.943195,49.345837 43.150146,47.014526 46.627205,45.201153 
	C51.033314,42.903259 55.662258,41.033546 60.188057,38.963772 
	C61.720863,38.262775 63.232250,37.514942 65.736206,36.319191 
	C64.546295,41.381969 64.361015,45.775963 62.403183,49.137619 
	C61.243011,51.129673 57.285282,51.492428 53.983101,52.832188 
	C54.707024,54.124207 55.320660,56.770214 56.958046,57.821095 
	C60.441357,60.056686 60.178909,62.879070 59.905663,66.243301 
	C59.557346,70.531792 60.739265,74.400337 65.540413,77.987480 
	C66.098579,75.284904 66.637024,73.422340 66.841797,71.523788 
	C67.212006,68.091339 66.999062,64.546242 67.787003,61.228043 
	C68.230499,59.360374 70.187988,57.852219 72.089470,56.529446 
	C73.985085,62.906406 70.432922,70.222824 78.418877,74.825180 
	C78.848755,72.882965 79.305313,71.290657 79.515610,69.666466 
	C79.616814,68.884842 79.230453,68.046631 79.104202,67.227982 
	C77.984436,59.967266 77.182289,52.822620 87.822449,49.467773 
	C84.239082,47.746109 82.264114,46.797218 80.107391,45.760998 
	C80.084267,45.551983 79.965652,45.069305 79.987656,44.593128 
	C80.602158,31.294436 80.607101,31.304073 93.530792,27.787241 
	C96.790550,26.900187 100.038277,25.965200 103.272667,24.989695 
	C106.463089,24.027449 109.629616,22.985950 113.192390,22.239672 
	C106.106224,27.201046 104.866631,33.909313 106.221817,41.747105 
	C106.460182,43.125687 104.799248,45.178108 103.525124,46.413769 
	C97.583107,52.176407 94.702507,58.799633 97.115021,67.075439 
	C99.547218,75.418739 104.884819,77.286285 112.192085,72.356812 
	C113.693420,71.344009 115.016777,70.067398 116.507576,68.842186 
	C119.576775,72.086555 122.238838,76.123627 128.213806,74.588524 
	C128.736710,74.720322 129.026901,75.026985 129.026901,75.026985 
	C117.910080,78.347733 106.579803,81.094818 95.729568,85.132027 
	C81.637451,90.375465 67.921036,96.630600 54.065437,102.503433 
	C53.070797,102.925026 52.260151,103.780716 51.681976,104.717285 
	C48.638714,105.000000 45.277424,105.000000 41.458069,105.000000 
z"/>
<path fill="#C0DBF1" opacity="1.000000" stroke="none" 
	d="
M128.598572,74.560684 
	C130.618530,71.966362 132.776596,69.531677 134.934677,67.097000 
	C134.508072,66.578323 134.081467,66.059647 133.654861,65.540977 
	C131.855881,66.387779 129.804169,66.925514 128.311050,68.146385 
	C125.295692,70.611908 122.806709,69.363930 121.238853,66.926353 
	C120.518967,65.807144 121.388222,63.272728 122.151062,61.672962 
	C123.850266,58.109608 126.152443,54.826015 127.741570,51.222336 
	C128.265411,50.034424 127.843834,47.689442 126.943619,46.847370 
	C126.220413,46.170872 123.694580,46.431480 122.720543,47.213177 
	C120.491585,49.002010 116.205246,49.636223 117.881180,54.346188 
	C118.098618,54.957275 116.440208,56.235828 115.604652,57.261749 
	C112.143158,53.131618 112.215538,50.136692 115.913246,46.028683 
	C120.347633,41.102253 123.800072,35.134926 126.894104,29.209198 
	C129.327072,24.549572 127.493309,20.566214 122.265404,18.501173 
	C143.305237,10.848455 164.927567,10.261480 187.453232,11.252781 
	C184.501129,16.569340 188.077240,19.140291 191.429504,21.970633 
	C194.795609,24.812664 194.907349,29.058851 193.462982,32.384769 
	C192.759399,34.004852 188.755310,34.363960 186.166702,34.942055 
	C183.823807,35.465275 181.374115,35.510258 178.518768,35.814327 
	C180.537491,32.324848 182.359589,28.909954 184.437424,25.658478 
	C186.501480,22.428553 186.851013,19.812632 182.639343,18.202082 
	C177.775513,25.658398 172.854416,33.202507 167.933334,40.746620 
	C167.500717,40.466537 167.068115,40.186459 166.635513,39.906376 
	C167.455292,36.203541 168.839005,32.507385 168.882965,28.795359 
	C168.909256,26.575464 167.363174,23.253277 165.571487,22.379519 
	C163.496796,21.367756 159.619797,21.521992 157.856186,22.888180 
	C153.039719,26.619297 148.602417,30.989193 144.722321,35.689957 
	C143.538986,37.123573 144.651840,40.452503 144.713089,42.913429 
	C146.583435,42.404373 148.828003,42.385365 150.254990,41.295692 
	C154.797104,37.827213 158.832916,33.866947 159.078369,27.507822 
	C159.108276,26.732704 160.134186,25.996027 160.698502,25.241535 
	C161.133652,25.418043 161.568802,25.594551 162.003952,25.771057 
	C161.665146,27.750034 161.523483,29.787592 160.955612,31.698492 
	C157.221527,44.263771 152.210327,56.583389 154.237305,70.878326 
	C145.998047,72.273285 137.941116,73.637375 129.455536,75.014221 
	C129.026901,75.026985 128.736710,74.720322 128.598572,74.560684 
z"/>
<path fill="#C0DBF1" opacity="1.000000" stroke="none" 
	d="
M214.995148,66.927505 
	C212.650574,72.689209 208.052719,69.444733 204.585190,69.811752 
	C200.585434,70.235100 196.415695,68.851158 192.371521,69.098465 
	C184.170746,69.599968 178.851974,66.234848 176.285614,58.521770 
	C174.827484,54.139420 172.450729,50.799332 166.815720,50.045353 
	C170.906815,45.043213 174.585846,40.544884 177.775711,36.644650 
	C180.691162,37.512642 183.149597,38.559227 185.707016,38.938477 
	C190.575699,39.660473 192.119293,41.803543 191.182251,46.723339 
	C190.823120,48.608936 191.123764,50.620193 191.123764,53.001644 
	C192.452911,53.001644 193.569702,53.001644 194.686493,53.001644 
	C195.662720,53.001644 196.638947,53.001644 198.186157,53.001644 
	C197.815704,55.583195 197.505096,57.747849 197.034546,61.026997 
	C200.794449,61.659538 204.808136,62.218727 208.766281,63.044281 
	C211.133438,63.538002 214.647476,62.245159 214.995148,66.927505 
z"/>
<path fill="#B8D1E6" opacity="1.000000" stroke="none" 
	d="
M166.976166,55.923683 
	C168.266449,59.196587 169.262344,62.173702 170.565933,65.009361 
	C172.473206,69.158180 170.516068,70.147156 166.826859,70.030792 
	C164.863815,69.968880 162.897202,70.019829 160.040070,70.019829 
	C160.451630,65.874573 160.377533,62.045330 161.363617,58.511955 
	C161.901428,56.584789 163.464172,53.658825 166.976166,55.923683 
z"/>
<path fill="#B8D1E6" opacity="1.000000" stroke="none" 
	d="
M106.783966,67.238388 
	C103.810516,69.026375 102.435799,67.731911 103.090233,65.211609 
	C104.172516,61.043587 105.924782,57.049534 107.678192,52.197815 
	C112.581284,60.796432 112.531372,61.341362 106.783966,67.238388 
z"/>
<path fill="#A7BFD2" opacity="1.000000" stroke="none" 
	d="
M111.769623,36.560574 
	C114.187897,31.599455 117.998489,28.816620 122.458076,26.826782 
	C122.935837,27.287769 123.413597,27.748756 123.891357,28.209743 
	C120.306389,32.208801 116.721420,36.207859 112.245773,41.200470 
	C111.919144,38.854702 111.782028,37.869957 111.769623,36.560574 
z"/>
<path fill="#A7BFD2" opacity="1.000000" stroke="none" 
	d="
M72.884605,47.997227 
	C72.233734,48.072731 71.906624,48.092476 71.579506,48.112217 
	C72.759834,43.065800 73.938164,38.018894 75.159760,32.982487 
	C75.168564,32.946198 75.771194,33.053940 77.032425,33.210892 
	C75.743736,38.175007 74.476044,43.058235 72.884605,47.997227 
z"/>
</svg>